<svg width="82" height="14" viewBox="0 0 82 14" fill="none" xmlns="http://www.w3.org/2000/svg">
<path d="M81.6667 5.73337C81.7333 5.40004 81.4667 5.00004 81.1333 5.00004L77.3333 4.46671L75.6 1.00004C75.5333 0.866707 75.4667 0.80004 75.3333 0.733374C75 0.533374 74.6 0.666707 74.4 1.00004L72.7333 4.46671L68.9333 5.00004C68.7333 5.00004 68.6 5.06671 68.5333 5.20004C68.2667 5.46671 68.2667 5.86671 68.5333 6.13337L71.2667 8.80004L70.6 12.6C70.6 12.7334 70.6 12.8667 70.6667 13C70.8667 13.3334 71.2667 13.4667 71.6 13.2667L75 11.4667L78.4 13.2667C78.4667 13.3334 78.6 13.3334 78.7333 13.3334C78.8 13.3334 78.8 13.3334 78.8667 13.3334C79.2 13.2667 79.4667 12.9334 79.4 12.5334L78.7333 8.73337L81.4667 6.06671C81.6 6.00004 81.6667 5.86671 81.6667 5.73337ZM77.5333 8.06671C77.4 8.20004 77.3333 8.46671 77.3333 8.66671L77.8 11.4667L75.2667 10.1334C75.2 10.0667 75.0667 10.0667 74.9333 10.0667V2.80004L76.2 5.33337C76.2667 5.53337 76.4667 5.66671 76.7333 5.66671L79.5333 6.06671L77.5333 8.06671Z" fill="#FFCF55"/>
<path d="M13.6667 5.73337C13.7333 5.40004 13.4667 5.00004 13.1333 5.00004L9.33334 4.46671L7.60001 1.00004C7.53334 0.866707 7.46668 0.80004 7.33334 0.733374C7.00001 0.533374 6.60001 0.666707 6.40001 1.00004L4.73334 4.46671L0.933344 5.00004C0.733344 5.00004 0.60001 5.06671 0.533344 5.20004C0.266677 5.46671 0.266677 5.86671 0.533344 6.13337L3.26668 8.80004L2.60001 12.6C2.60001 12.7334 2.60001 12.8667 2.66668 13C2.86668 13.3334 3.26668 13.4667 3.60001 13.2667L7.00001 11.4667L10.4 13.2667C10.4667 13.3334 10.6 13.3334 10.7333 13.3334C10.8 13.3334 10.8 13.3334 10.8667 13.3334C11.2 13.2667 11.4667 12.9334 11.4 12.5334L10.7333 8.73337L13.4667 6.06671C13.6 6.00004 13.6667 5.86671 13.6667 5.73337Z" fill="#FFCF55"/>
<path d="M30.6667 5.73337C30.7333 5.40004 30.4667 5.00004 30.1333 5.00004L26.3333 4.46671L24.6 1.00004C24.5333 0.866707 24.4667 0.80004 24.3333 0.733374C24 0.533374 23.6 0.666707 23.4 1.00004L21.7333 4.46671L17.9333 5.00004C17.7333 5.00004 17.6 5.06671 17.5333 5.20004C17.2667 5.46671 17.2667 5.86671 17.5333 6.13337L20.2667 8.80004L19.6 12.6C19.6 12.7334 19.6 12.8667 19.6667 13C19.8667 13.3334 20.2667 13.4667 20.6 13.2667L24 11.4667L27.4 13.2667C27.4667 13.3334 27.6 13.3334 27.7333 13.3334C27.8 13.3334 27.8 13.3334 27.8667 13.3334C28.2 13.2667 28.4667 12.9334 28.4 12.5334L27.7333 8.73337L30.4667 6.06671C30.6 6.00004 30.6667 5.86671 30.6667 5.73337Z" fill="#FFCF55"/>
<path d="M47.6667 5.73337C47.7333 5.40004 47.4667 5.00004 47.1333 5.00004L43.3333 4.46671L41.6 1.00004C41.5333 0.866707 41.4667 0.80004 41.3333 0.733374C41 0.533374 40.6 0.666707 40.4 1.00004L38.7333 4.46671L34.9333 5.00004C34.7333 5.00004 34.6 5.06671 34.5333 5.20004C34.2667 5.46671 34.2667 5.86671 34.5333 6.13337L37.2667 8.80004L36.6 12.6C36.6 12.7334 36.6 12.8667 36.6667 13C36.8667 13.3334 37.2667 13.4667 37.6 13.2667L41 11.4667L44.4 13.2667C44.4667 13.3334 44.6 13.3334 44.7333 13.3334C44.8 13.3334 44.8 13.3334 44.8667 13.3334C45.2 13.2667 45.4667 12.9334 45.4 12.5334L44.7333 8.73337L47.4667 6.06671C47.6 6.00004 47.6667 5.86671 47.6667 5.73337Z" fill="#FFCF55"/>
<path d="M64.6667 5.73337C64.7333 5.40004 64.4667 5.00004 64.1333 5.00004L60.3333 4.46671L58.6 1.00004C58.5333 0.866707 58.4667 0.80004 58.3333 0.733374C58 0.533374 57.6 0.666707 57.4 1.00004L55.7333 4.46671L51.9333 5.00004C51.7333 5.00004 51.6 5.06671 51.5333 5.20004C51.2667 5.46671 51.2667 5.86671 51.5333 6.13337L54.2667 8.80004L53.6 12.6C53.6 12.7334 53.6 12.8667 53.6667 13C53.8667 13.3334 54.2667 13.4667 54.6 13.2667L58 11.4667L61.4 13.2667C61.4667 13.3334 61.6 13.3334 61.7333 13.3334C61.8 13.3334 61.8 13.3334 61.8667 13.3334C62.2 13.2667 62.4667 12.9334 62.4 12.5334L61.7333 8.73337L64.4667 6.06671C64.6 6.00004 64.6667 5.86671 64.6667 5.73337Z" fill="#FFCF55"/>
</svg>
